<svg width="247" height="70" viewBox="0 0 247 70" fill="none" xmlns="http://www.w3.org/2000/svg">
<path d="M45.8751 27.5164L14.6558 48.6371V51.8837L45.8751 30.8354L65.9518 42.8447V39.5259L45.8751 27.5164Z" fill="#000916"/>
<path d="M11.5441 53.8577V50.5892L0 58.2327L1.50575 60.3447L11.5441 53.8577Z" fill="#000916"/>
<path d="M68.9633 0H11.5439V50.5892L14.6558 48.6371L14.5555 3.01724H65.9519V39.526V42.8447V66.9827H14.5555L14.6558 51.8837L11.5439 53.8577V70H68.9633V0Z" fill="#000916"/>
<path fill-rule="evenodd" clip-rule="evenodd" d="M14.6558 51.8838V48.6371L11.5439 50.5892V53.8577L14.6558 51.8838Z" fill="#000916"/>
<path d="M65.9521 3.01721H14.5557L14.656 48.6371L45.8754 27.5164L65.9521 39.5259V3.01721Z" fill="#4CB3FE"/>
<path d="M40.354 47.3707H45.1724V52.1983H40.354V47.3707Z" fill="#4CB3FE"/>
<path d="M40.354 53.707H45.1724V58.1322H40.354V53.707Z" fill="#4CB3FE"/>
<path d="M46.6782 53.707H51.4966V58.1322H46.6782V53.707Z" fill="#4CB3FE"/>
<path d="M51.4966 47.3707H46.6782V52.1983H51.4966V47.3707Z" fill="#4CB3FE"/>
<path fill-rule="evenodd" clip-rule="evenodd" d="M14.5557 66.9827H65.9521V42.8447L45.8754 30.8354L14.656 51.8838L14.5557 66.9827ZM45.1726 47.3707H40.3542V52.1983H45.1726V47.3707ZM45.1726 53.707H40.3542V58.1322H45.1726V53.707ZM46.6784 47.3707H51.4969V52.1983H46.6784V47.3707ZM51.4969 53.707H46.6784V58.1322H51.4969V53.707Z" fill="#FDD43C"/>
<path d="M87.9985 29L83.5015 29.0073V18.5044H87.7715C88.6211 18.5044 89.3462 18.7827 89.9468 19.3467C90.5474 19.9033 90.8477 20.5479 90.8477 21.2803C90.8477 21.6978 90.7598 22.0859 90.584 22.4375C90.4082 22.7891 90.2397 23.0308 90.0713 23.1699L89.8003 23.3823C89.8369 23.397 89.8882 23.4336 89.9614 23.4775C90.0347 23.5215 90.1592 23.624 90.3496 23.7778C90.5327 23.9316 90.6938 24.1001 90.8257 24.2905C90.9575 24.4736 91.082 24.7153 91.1992 25.0083C91.3164 25.3013 91.375 25.6089 91.375 25.9238C91.375 26.7661 91.0527 27.4912 90.4082 28.0918C89.7637 28.6997 88.958 29 87.9985 29ZM85.1494 27.5791H87.9985C88.4819 27.5791 88.8921 27.4106 89.229 27.0811C89.5586 26.7515 89.7271 26.3413 89.7271 25.8579C89.7271 25.3672 89.5586 24.957 89.229 24.6274C88.8994 24.2905 88.4893 24.1294 87.9985 24.1294H85.1494V27.5791ZM87.7715 19.9326H85.1494V22.7817H87.7715C88.1816 22.7817 88.5186 22.6426 88.7896 22.3716C89.0605 22.1006 89.1997 21.7637 89.1997 21.3535C89.1997 20.9434 89.0605 20.6064 88.7896 20.3354C88.5186 20.0645 88.1816 19.9326 87.7715 19.9326ZM94.8174 21.8003V29H93.3159V21.8003H94.8174ZM94.9712 19.5518C94.9712 19.8154 94.8833 20.0278 94.7148 20.1963C94.5391 20.3721 94.3267 20.4526 94.0703 20.4526C93.8066 20.4526 93.5942 20.3721 93.4258 20.1963C93.25 20.0278 93.1694 19.8154 93.1694 19.5518C93.1694 19.2954 93.25 19.083 93.4258 18.9146C93.5942 18.7388 93.8066 18.6582 94.0703 18.6582C94.3267 18.6582 94.5391 18.7388 94.7148 18.9146C94.8833 19.083 94.9712 19.2954 94.9712 19.5518ZM103.372 21.8003L100.596 24.8032L103.592 29H101.944L99.6221 25.7773L98.4941 26.9785V29H96.9927V21.8003H98.4941V25.0229L101.57 21.8003H103.372ZM110.03 25.4038C110.03 24.73 109.803 24.166 109.363 23.6973C108.917 23.2358 108.389 23.0015 107.781 23.0015C107.166 23.0015 106.639 23.2358 106.192 23.6973C105.745 24.166 105.525 24.73 105.525 25.4038C105.525 26.0776 105.745 26.6416 106.192 27.103C106.639 27.5718 107.166 27.7988 107.781 27.7988C108.389 27.7988 108.917 27.5718 109.363 27.103C109.803 26.6416 110.03 26.0776 110.03 25.4038ZM104.031 25.4038C104.031 24.3931 104.397 23.5142 105.145 22.7671C105.892 22.02 106.771 21.6465 107.781 21.6465C108.792 21.6465 109.664 22.02 110.411 22.7671C111.158 23.5142 111.531 24.3931 111.531 25.4038C111.531 26.4146 111.158 27.2861 110.411 28.0332C109.664 28.7803 108.792 29.1538 107.781 29.1538C106.771 29.1538 105.892 28.7803 105.145 28.0332C104.397 27.2861 104.031 26.4146 104.031 25.4038ZM114.681 25.9971V29H113.179V21.8003H114.681V24.6494H118.204V21.8003H119.705V29H118.204V25.9971H114.681ZM123.309 25.9971V29H121.807V21.8003H123.309V24.6494H126.832V21.8003H128.333V29H126.832V25.9971H123.309ZM136.214 29L134.712 29.0073V28.2603C134.69 28.2749 134.654 28.3115 134.61 28.3555C134.566 28.3994 134.471 28.4653 134.332 28.5679C134.192 28.6704 134.046 28.7583 133.885 28.8389C133.724 28.9194 133.519 28.9927 133.277 29.0586C133.028 29.1172 132.786 29.1538 132.537 29.1538C131.805 29.1538 131.197 28.9414 130.713 28.5166C130.23 28.0918 129.988 27.6011 129.988 27.0591C129.988 26.4658 130.171 25.9678 130.545 25.5649C130.918 25.1694 131.431 24.9131 132.083 24.8032L134.712 24.3491C134.712 23.9683 134.566 23.6533 134.288 23.3896C134.009 23.1333 133.65 23.0015 133.211 23.0015C132.83 23.0015 132.479 23.082 132.171 23.2432C131.863 23.4043 131.651 23.5581 131.534 23.7192L131.336 23.9756L130.362 23.0015C130.391 22.9648 130.428 22.9136 130.479 22.855C130.53 22.7964 130.647 22.6865 130.823 22.5327C130.999 22.3789 131.189 22.2397 131.395 22.1152C131.592 21.998 131.856 21.8882 132.186 21.793C132.515 21.6978 132.859 21.6465 133.211 21.6465C134.09 21.6465 134.808 21.9102 135.372 22.4302C135.928 22.9502 136.214 23.5874 136.214 24.3491V29ZM132.764 27.8062C133.372 27.8062 133.848 27.623 134.192 27.2568C134.537 26.8906 134.712 26.3779 134.712 25.7041V25.5576L132.383 25.9312C132.112 25.9751 131.893 26.085 131.731 26.2607C131.563 26.4292 131.482 26.6416 131.482 26.8979C131.482 27.1396 131.592 27.3521 131.827 27.5352C132.061 27.7109 132.369 27.8062 132.764 27.8062Z" fill="#19B4FF"/>
<path d="M92.1562 47.5195L97.9688 40.1953H101.156V57H97.5586V45.7969L92.1562 52.6758L86.7656 45.8438V57H83.1562V40.1953H86.4023L92.1562 47.5195ZM114.117 49.9219L112.078 44.4023L110.027 49.9219H114.117ZM115.312 53.0391H108.832L107.391 57H103.547L110.156 40.1953H113.988L120.598 57H116.754L115.312 53.0391ZM130.441 36C130.852 36 131.191 35.8711 131.473 35.5898C131.742 35.3203 131.883 34.9805 131.883 34.5703H134.285C134.285 35.6484 133.922 36.5391 133.219 37.2422C132.504 37.9453 131.578 38.2969 130.441 38.2969C129.305 38.2969 128.379 37.9453 127.676 37.2422C126.961 36.5391 126.609 35.6484 126.609 34.5703H129C129 34.9805 129.129 35.3203 129.41 35.5898C129.68 35.8711 130.02 36 130.441 36ZM138 57H134.402V46.3242L126.129 57H123V40.1953H126.609V50.8828L134.883 40.1953H138V57ZM150.48 39.8438C151.359 39.8438 152.203 39.9609 153 40.1953C153.797 40.4297 154.441 40.6992 154.957 41.0273C155.473 41.3555 155.918 41.6836 156.316 42.0117C156.715 42.3398 156.996 42.6211 157.172 42.8438L157.441 43.1953L155.156 45.4805C155.109 45.4219 155.039 45.3398 154.957 45.2227C154.875 45.1055 154.688 44.918 154.406 44.6367C154.125 44.3672 153.809 44.1328 153.48 43.9219C153.141 43.7109 152.695 43.5234 152.156 43.3477C151.605 43.1719 151.043 43.0781 150.48 43.0781C148.91 43.0781 147.598 43.6055 146.543 44.6602C145.488 45.7148 144.961 47.0273 144.961 48.5977C144.961 50.168 145.488 51.4805 146.543 52.5352C147.598 53.5898 148.91 54.1172 150.48 54.1172C151.09 54.1172 151.664 54.0352 152.227 53.8711C152.789 53.707 153.246 53.5078 153.621 53.2734C153.984 53.0391 154.312 52.8047 154.594 52.5703C154.875 52.3359 155.074 52.1367 155.203 51.9609L155.391 51.7148L157.559 54C157.488 54.0938 157.395 54.2227 157.266 54.375C157.137 54.5273 156.855 54.7969 156.41 55.1836C155.965 55.5703 155.496 55.9102 154.992 56.2031C154.488 56.4961 153.832 56.7656 153.012 57C152.191 57.2461 151.348 57.3633 150.48 57.3633C147.914 57.3633 145.746 56.5078 143.988 54.7969C142.23 53.0859 141.352 51.0117 141.352 48.5977C141.352 46.1836 142.23 44.1211 143.988 42.4102C145.746 40.6992 147.914 39.8438 150.48 39.8438ZM158.754 40.1953H171.949V43.4414H167.156V57H163.559V43.4414H158.754V40.1953ZM178.195 53.7656H187.195V57H174.586V40.1953H186.949V43.4414H178.195V46.8047H185.027V50.0391H178.195V53.7656ZM190.547 40.1953L197.625 40.207C199.348 40.207 200.777 40.7461 201.914 41.8242C203.051 42.9023 203.625 44.25 203.625 45.8438C203.625 47.4375 203.051 48.7852 201.926 49.8633C200.789 50.9414 199.359 51.4805 197.625 51.4805H194.156V57H190.547V40.1953ZM197.508 43.4531H194.156V48.2461H197.508C198.223 48.2461 198.82 48.0117 199.301 47.5547C199.781 47.0859 200.027 46.5234 200.027 45.8555C200.027 45.1758 199.781 44.6133 199.301 44.1445C198.82 43.6758 198.223 43.4531 197.508 43.4531ZM221.262 40.1953V57H217.664V50.1562H210.469V57H206.859V40.1953H210.469V46.9219H217.664V40.1953H221.262ZM238.066 40.1953V57.0117H234.469V51.1289H231.352L228.105 57.0117H224.273L227.871 50.6484C227.789 50.6133 227.684 50.5664 227.543 50.4961C227.402 50.4258 227.168 50.2383 226.828 49.957C226.477 49.6641 226.172 49.3477 225.914 49.0195C225.645 48.6797 225.398 48.2109 225.188 47.625C224.977 47.0273 224.871 46.3945 224.871 45.7266C224.871 44.168 225.41 42.8555 226.5 41.7891C227.578 40.7344 228.961 40.1953 230.625 40.1953H238.066ZM228.469 45.7266C228.469 46.3359 228.68 46.8398 229.113 47.2617C229.547 47.6836 230.098 47.8945 230.754 47.8945H234.469V43.4531H230.754C230.098 43.4531 229.547 43.6641 229.113 44.0977C228.68 44.5195 228.469 45.0703 228.469 45.7266Z" fill="#00070E"/>
</svg>
